<?xml version="1.0" encoding="utf-8"?>
<!-- Generator: Adobe Illustrator 16.0.0, SVG Export Plug-In . SVG Version: 6.00 Build 0)  -->
<!DOCTYPE svg PUBLIC "-//W3C//DTD SVG 1.1//EN" "http://www.w3.org/Graphics/SVG/1.1/DTD/svg11.dtd">
<svg version="1.1" id="Layer_1" xmlns="http://www.w3.org/2000/svg" xmlns:xlink="http://www.w3.org/1999/xlink" x="0px" y="0px"
	 width="283.46px" height="283.46px" viewBox="0 0 283.46 283.46" enable-background="new 0 0 283.46 283.46" xml:space="preserve">
<path fill="#303030" d="M202.34,219.518H91.79c-15.721,0-28.512-12.79-28.512-28.512V80.455c0-15.721,12.791-28.512,28.512-28.512
	h110.55c15.723,0,28.514,12.791,28.514,28.512v110.551C230.854,206.728,218.063,219.518,202.34,219.518z M91.79,57.943
	c-12.413,0-22.512,10.099-22.512,22.512v110.551c0,12.413,10.099,22.512,22.512,22.512h110.55c12.414,0,22.514-10.099,22.514-22.512
	V80.455c0-12.413-10.1-22.512-22.514-22.512H91.79z"/>
<path fill="#303030" d="M114.333,167.59v15.834h44.353V167.59l-6.833-2.363V85.356h-8.917l-21.198,4.342
	c0,0-5.843,0.751-7.188,0.751l0.043,18.486l7.211,0.75v55.54L114.333,167.59z"/>
<path fill="#303030" d="M194.315,105.358c0,11.047-8.954,20.001-20.002,20.001c-4.354,0-8.381-1.39-11.666-3.751
	c-5.048-3.631-8.288,11.48-8.288,11.48v-29.083c0,0,0.006-0.122,0.009-0.168c0.775-10.337,9.41-18.482,19.945-18.482
	C185.361,85.356,194.315,94.312,194.315,105.358z"/>
</svg>
